<svg width="4000" height="4005" viewBox="0 0 4000 4005" fill="none" xmlns="http://www.w3.org/2000/svg">
<path d="M3843.42 1228.94H3520.76C3644.13 1461.45 3710.56 1731.91 3710.56 2011.86C3710.56 2344.01 3615.66 2652.43 3449.58 2913.4H3786.48C3924.08 2642.94 4000 2334.52 4000 2011.86C4000 1731.91 3943.06 1466.19 3843.42 1228.94ZM1997.63 3720.05C1053.38 3720.05 284.698 2951.36 284.698 2007.12C284.698 1062.87 1053.38 294.187 1997.63 294.187C2519.57 294.187 2989.32 526.69 3302.49 896.797H3667.85C3307.24 355.872 2695.14 0 2002.37 0C896.797 0 0 896.797 0 2002.37C0 3107.95 896.797 4004.74 2002.37 4004.74C2642.94 4004.74 3217.08 3701.07 3582.44 3231.32H3193.36C2880.19 3534.99 2462.63 3720.05 1997.63 3720.05Z" fill="black"/>
</svg>
