<svg width="4000" height="1694" viewBox="0 0 4000 1694" fill="none" xmlns="http://www.w3.org/2000/svg">
<path d="M1829.88 1372.41L1882.05 1516.87H1855.97L1843.93 1482.76H1787.75L1775.71 1516.87H1749.62L1801.79 1372.41H1829.88ZM1793.77 1460.69H1833.9L1813.83 1400.5L1793.77 1460.69Z" fill="white"/>
<path d="M2307.42 1450.66C2307.42 1460.69 2305.41 1470.72 2301.4 1478.75C2297.38 1486.77 2293.37 1494.8 2287.35 1500.82C2281.33 1506.84 2273.31 1510.85 2265.28 1514.86C2257.25 1518.88 2247.22 1520.88 2237.19 1520.88C2225.15 1520.88 2215.12 1518.88 2207.09 1514.86C2197.06 1510.85 2189.04 1506.84 2183.02 1498.81C2177 1492.79 2170.98 1484.77 2166.96 1474.74C2162.95 1464.7 2160.95 1454.67 2160.95 1444.64C2160.95 1434.61 2162.95 1424.57 2166.96 1414.54C2170.98 1404.51 2174.99 1398.49 2183.02 1390.47C2189.04 1384.45 2197.06 1378.43 2207.09 1374.41C2217.13 1370.4 2227.16 1368.39 2237.19 1368.39C2251.24 1368.39 2263.27 1372.41 2275.31 1378.43C2287.35 1384.45 2295.38 1394.48 2301.4 1404.51L2281.33 1416.55C2277.32 1408.52 2271.3 1402.5 2265.28 1398.49C2257.25 1394.48 2249.23 1392.47 2239.2 1392.47C2231.17 1392.47 2225.15 1394.48 2219.13 1396.48C2213.11 1398.49 2207.09 1402.5 2203.08 1406.52C2199.07 1410.53 2195.06 1416.55 2193.05 1422.57C2191.04 1428.59 2189.04 1436.61 2189.04 1444.64C2189.04 1452.67 2191.04 1458.68 2193.05 1466.71C2195.06 1474.74 2199.07 1478.75 2203.08 1482.76C2207.09 1486.77 2213.11 1490.79 2219.13 1492.79C2225.15 1494.8 2231.17 1496.81 2239.2 1496.81C2251.24 1496.81 2261.27 1492.79 2269.29 1486.77C2277.32 1480.76 2281.33 1470.72 2283.34 1460.69H2227.16V1438.62H2307.42C2307.42 1442.63 2307.42 1446.65 2307.42 1450.66Z" fill="white"/>
<path d="M2592.33 1372.41H2684.62V1396.48H2618.41V1430.59H2678.61V1454.67H2618.41V1494.8H2684.62V1518.88H2592.33V1372.41Z" fill="white"/>
<path d="M2967.54 1516.87V1372.41H2993.62L3059.84 1476.74V1372.41H3083.91V1516.87H3057.83L2991.62 1412.54V1516.87H2967.54Z" fill="white"/>
<path d="M3443.07 1520.88C3433.03 1520.88 3423 1518.88 3412.97 1514.86C3404.94 1510.85 3394.91 1506.84 3388.89 1498.81C3382.87 1492.79 3376.85 1484.77 3372.84 1474.74C3368.83 1464.7 3366.82 1454.67 3366.82 1444.64C3366.82 1434.61 3368.83 1422.57 3372.84 1414.54C3376.85 1404.51 3380.87 1398.49 3388.89 1390.47C3394.91 1384.45 3402.94 1378.43 3412.97 1374.41C3423 1370.4 3433.03 1368.39 3443.07 1368.39C3457.11 1368.39 3471.16 1372.41 3481.19 1378.43C3493.23 1384.45 3501.25 1394.48 3507.27 1406.52L3485.2 1418.56C3481.19 1410.53 3475.17 1402.5 3469.15 1398.49C3461.12 1394.48 3453.1 1392.47 3443.07 1392.47C3435.04 1392.47 3429.02 1394.48 3423 1396.48C3416.98 1398.49 3410.96 1402.5 3406.95 1406.52C3402.94 1410.53 3398.92 1416.55 3396.92 1422.57C3394.91 1428.59 3392.9 1436.61 3392.9 1442.63C3392.9 1448.65 3394.91 1456.68 3396.92 1462.7C3398.92 1468.72 3402.94 1474.74 3406.95 1478.75C3410.96 1482.76 3416.98 1486.77 3423 1488.78C3429.02 1490.79 3435.04 1492.79 3443.07 1492.79C3453.1 1492.79 3461.12 1490.79 3469.15 1486.77C3477.17 1482.76 3481.19 1474.74 3485.2 1466.71L3507.27 1478.75C3501.25 1490.79 3493.23 1500.82 3481.19 1508.85C3471.16 1516.87 3459.12 1518.88 3443.07 1520.88Z" fill="white"/>
<path d="M3840.33 1516.87V1460.69L3792.18 1374.41H3820.27L3854.38 1438.62L3888.49 1374.41H3916.58L3868.42 1460.69V1516.87H3840.33Z" fill="white"/>
<path d="M2487.99 1237.98C2289.35 1237.98 2128.84 1077.46 2128.84 878.822C2128.84 680.184 2289.35 519.668 2487.99 519.668C2636.47 519.668 2768.89 609.958 2823.07 748.403L2694.65 798.564C2660.54 712.287 2580.29 656.106 2487.99 656.106C2365.6 656.106 2265.27 756.429 2265.27 878.822C2265.27 1001.22 2363.59 1099.53 2487.99 1099.53C2580.29 1099.53 2660.54 1045.36 2694.65 959.08L2821.06 1009.24C2766.89 1147.69 2634.46 1237.98 2487.99 1237.98Z" fill="white"/>
<path d="M3260.47 1237.98C3061.84 1237.98 2901.32 1077.46 2901.32 878.825V282.91H3037.76V878.825C3037.76 1001.22 3138.08 1101.54 3260.47 1101.54C3260.47 1099.53 3260.47 1237.98 3260.47 1237.98Z" fill="white"/>
<path d="M1886.06 1231.96H1749.62V880.83C1749.62 682.191 1910.14 521.676 2108.78 521.676V658.114C1986.39 658.114 1886.06 758.436 1886.06 880.83V1231.96Z" fill="white"/>
<path d="M1454.68 1019.28C1454.68 1135.65 1358.37 1231.96 1239.99 1231.96H646.078V1095.52H1239.99C1282.12 1095.52 1316.23 1061.41 1316.23 1019.28C1316.23 977.14 1282.12 943.031 1239.99 943.031H1093.52C975.135 943.031 878.826 846.721 878.826 730.347C878.826 613.973 977.142 517.664 1093.52 517.664H1384.45V654.102H1093.52C1051.38 654.102 1017.27 688.212 1017.27 730.347C1017.27 772.483 1051.38 806.592 1093.52 806.592H1239.99C1358.37 806.592 1454.68 902.902 1454.68 1019.28Z" fill="white"/>
<path d="M1625.22 519.669H1488.78C1540.95 617.985 1569.04 732.353 1569.04 850.733C1569.04 991.184 1528.91 1121.6 1458.69 1231.96H1601.14C1659.33 1117.59 1691.43 987.171 1691.43 850.733C1691.43 732.353 1667.36 619.992 1625.22 519.669ZM844.714 1573.05C445.431 1573.05 120.387 1248.01 120.387 848.727C120.387 449.444 445.431 124.4 844.714 124.4C1065.42 124.4 1264.06 222.715 1396.49 379.218H1550.98C1398.49 150.483 1139.66 0 846.72 0C379.218 0 0 379.218 0 846.72C0 1314.22 379.218 1693.44 846.72 1693.44C1117.59 1693.44 1360.37 1565.03 1514.87 1366.39H1350.34C1217.91 1494.8 1041.35 1573.05 844.714 1573.05Z" fill="white"/>
<path d="M4000 879.046C4000 802.99 3983.1 737.498 3951.41 684.681C3919.72 631.865 3873.24 591.725 3818.31 562.148C3763.38 534.683 3700.01 519.895 3630.29 519.895C3581.7 519.895 3533.11 528.345 3488.74 543.134C3444.37 557.922 3404.23 581.161 3370.43 610.738C3336.63 640.316 3309.16 678.344 3290.15 724.822C3281.7 743.836 3275.36 769.188 3269.02 800.877C3262.69 832.567 3260.57 860.032 3260.57 883.271C3260.57 957.214 3277.47 1020.59 3309.16 1075.52C3340.85 1128.34 3385.22 1168.48 3440.15 1195.94C3467.61 1210.73 3499.3 1221.3 3535.22 1227.63C3571.13 1233.97 3607.05 1238.2 3640.85 1238.2C3666.2 1238.2 3695.78 1236.08 3725.36 1231.86C3754.93 1227.63 3782.4 1221.3 3805.64 1214.96C3875.36 1191.72 3932.4 1147.35 3976.76 1086.09L3841.55 1033.27C3824.65 1056.51 3799.3 1075.52 3771.84 1092.42C3740.15 1111.44 3704.23 1122 3668.32 1124.11H3617.61C3566.91 1119.89 3524.65 1105.1 3490.85 1077.64C3459.16 1050.17 3435.92 1014.26 3421.13 969.89L3416.91 957.214L3997.89 900.172L4000 879.046ZM3837.33 786.089L3841.55 798.765L3412.68 841.018L3414.8 826.23C3423.25 771.301 3444.37 726.935 3478.18 691.019C3511.98 655.104 3558.46 636.09 3615.5 631.865H3640.85C3691.55 633.978 3731.69 650.879 3765.5 678.344C3799.3 705.808 3822.54 741.723 3837.33 786.089Z" fill="white"/>
</svg>
