<svg width="4000" height="4005" viewBox="0 0 4000 4005" fill="none" xmlns="http://www.w3.org/2000/svg">
<path d="M3440.11 2410.44C3440.11 2685.65 3212.35 2913.4 2932.4 2913.4H1527.89V2590.75H2932.4C3032.04 2590.75 3112.71 2510.08 3112.71 2410.44C3112.71 2310.79 3032.04 2230.13 2932.4 2230.13H2586.02C2306.06 2230.13 2078.31 2002.37 2078.31 1727.16C2078.31 1451.96 2310.81 1224.2 2586.02 1224.2H3274.04V1546.86H2586.02C2486.37 1546.86 2405.71 1627.52 2405.71 1727.16C2405.71 1826.81 2486.37 1907.47 2586.02 1907.47H2932.4C3212.35 1907.47 3440.11 2135.23 3440.11 2410.44Z" fill="white"/>
<path d="M3843.42 1228.94H3520.76C3644.13 1461.45 3710.56 1731.91 3710.56 2011.86C3710.56 2344.01 3615.66 2652.43 3449.58 2913.4H3786.48C3924.08 2642.94 4000 2334.52 4000 2011.86C4000 1731.91 3943.06 1466.19 3843.42 1228.94ZM1997.63 3720.05C1053.38 3720.05 284.698 2951.36 284.698 2007.12C284.698 1062.87 1053.38 294.187 1997.63 294.187C2519.57 294.187 2989.32 526.69 3302.49 896.797H3667.85C3307.24 355.872 2695.14 0 2002.37 0C896.797 0 0 896.797 0 2002.37C0 3107.95 896.797 4004.74 2002.37 4004.74C2642.94 4004.74 3217.08 3701.07 3582.44 3231.32H3193.36C2880.19 3534.99 2462.63 3720.05 1997.63 3720.05Z" fill="white"/>
</svg>
