<svg width="4000" height="1551" viewBox="0 0 4000 1551" fill="none" xmlns="http://www.w3.org/2000/svg">
<path d="M791.569 1374.75L853.852 1546.88H822.144L808.555 1507.25H741.742L728.153 1546.88H697.578L759.861 1374.75H791.569ZM750.802 1480.07H799.496L775.715 1408.72L750.802 1480.07Z" fill="white"/>
<path d="M1362.32 1467.61C1362.32 1480.07 1360.05 1491.39 1356.65 1501.59C1353.26 1511.78 1347.59 1520.84 1339.67 1527.63C1331.74 1534.43 1323.81 1540.09 1313.62 1544.62C1303.43 1548.01 1292.11 1550.28 1279.65 1550.28C1266.06 1550.28 1253.6 1548.02 1243.41 1543.49C1232.09 1538.96 1223.03 1532.16 1215.1 1524.23C1207.17 1516.31 1201.51 1507.25 1196.98 1495.92C1192.45 1484.6 1190.19 1473.28 1190.19 1460.82C1190.19 1448.36 1192.45 1435.91 1196.98 1424.58C1201.51 1413.26 1207.17 1404.2 1215.1 1396.27C1223.03 1388.34 1232.09 1382.68 1243.41 1378.15C1254.74 1373.62 1266.06 1371.36 1279.65 1371.36C1296.63 1371.36 1311.36 1374.75 1323.81 1382.68C1336.27 1389.48 1346.46 1400.8 1354.39 1414.39L1329.48 1429.11C1324.95 1418.92 1318.15 1412.12 1309.09 1406.46C1300.03 1400.8 1290.97 1398.54 1279.65 1398.54C1270.59 1398.54 1262.66 1399.67 1255.87 1403.07C1249.07 1406.46 1242.28 1409.86 1237.75 1415.52C1232.09 1421.18 1228.69 1427.98 1225.29 1434.77C1221.9 1442.7 1220.76 1450.63 1220.76 1459.69C1220.76 1468.75 1221.9 1476.67 1225.29 1484.6C1228.69 1492.53 1232.09 1498.19 1237.75 1503.85C1243.41 1509.51 1249.07 1514.04 1255.87 1516.31C1262.66 1519.7 1270.59 1520.84 1279.65 1520.84C1294.37 1520.84 1305.69 1517.44 1314.75 1509.51C1323.81 1501.59 1329.48 1491.39 1331.74 1478.94H1264.93V1451.76H1361.18C1362.32 1458.55 1362.32 1463.08 1362.32 1467.61Z" fill="white"/>
<path d="M1699.77 1374.75H1810.75V1403.06H1730.35V1443.83H1801.69V1472.14H1730.35V1518.57H1810.75V1546.88H1699.77V1374.75Z" fill="white"/>
<path d="M2148.21 1545.75V1373.62H2179.92L2259.19 1497.05V1373.62H2288.63V1545.75H2256.92L2177.65 1422.31V1545.75H2148.21Z" fill="white"/>
<path d="M2715.55 1550.28C2703.09 1550.28 2690.63 1548.02 2680.44 1543.49C2669.12 1538.96 2660.06 1533.29 2652.13 1525.37C2644.2 1517.44 2638.54 1508.38 2634.01 1497.06C2629.48 1485.73 2627.22 1474.41 2627.22 1460.82C2627.22 1447.23 2629.48 1435.91 2634.01 1424.58C2638.54 1413.26 2644.2 1404.2 2652.13 1396.27C2660.06 1388.34 2669.12 1382.68 2680.44 1378.15C2691.77 1373.62 2703.09 1371.36 2715.55 1371.36C2733.67 1371.36 2748.39 1375.89 2761.98 1383.81C2775.57 1391.74 2785.76 1403.07 2792.55 1418.92L2766.51 1432.51C2761.98 1422.32 2755.18 1414.39 2747.26 1408.73C2739.33 1403.07 2729.14 1400.8 2716.68 1400.8C2707.62 1400.8 2699.69 1401.93 2692.9 1405.33C2686.1 1408.73 2679.31 1412.12 2674.78 1417.79C2669.12 1423.45 2665.72 1429.11 2662.32 1437.04C2658.93 1444.96 2657.79 1452.89 2657.79 1461.95C2657.79 1471.01 2658.93 1478.94 2662.32 1486.86C2665.72 1494.79 2669.12 1500.45 2673.65 1506.12C2678.18 1511.78 2684.97 1515.17 2691.77 1518.57C2698.56 1521.97 2706.49 1523.1 2715.55 1523.1C2728 1523.1 2738.2 1520.84 2746.12 1515.17C2754.05 1509.51 2760.84 1501.59 2765.37 1490.26L2792.55 1503.85C2785.76 1518.57 2775.57 1531.03 2761.98 1538.96C2749.52 1545.75 2733.67 1550.28 2715.55 1550.28Z" fill="white"/>
<path d="M3188.91 1545.75V1477.8L3131.15 1374.75H3163.99L3204.76 1451.76L3244.39 1374.75H3277.23L3219.48 1477.8V1545.75H3188.91Z" fill="white"/>
<path d="M3898.92 0C3881.93 0 3866.08 4.52972 3852.49 14.7215C3838.9 23.7809 3827.57 37.3699 3821.91 52.0914C3815.12 67.9453 3813.99 84.9316 3817.38 100.786C3820.78 116.639 3828.71 132.493 3840.03 143.818C3851.35 155.142 3867.21 163.069 3883.06 166.466C3898.92 169.863 3915.9 167.598 3931.76 161.936C3947.61 155.142 3960.07 144.95 3969.13 131.361C3978.19 117.772 3983.85 100.785 3983.85 84.9315C3983.85 62.2831 3974.79 40.7673 3958.93 24.9134C3943.08 9.0595 3921.57 0 3898.92 0ZM3898.92 151.744C3885.33 151.744 3872.87 148.347 3861.55 140.42C3850.22 132.493 3842.3 122.302 3836.63 109.845C3830.97 97.3883 3829.84 83.7992 3833.24 71.3425C3835.5 57.7535 3842.3 46.4293 3851.35 37.3699C3860.41 28.3105 3872.87 21.5161 3885.33 19.2513C3898.92 16.9864 3912.51 18.1187 3923.83 22.6484C3936.29 28.3105 3946.48 36.2376 3954.41 47.5618C3962.33 58.886 3965.73 71.3425 3965.73 84.9315C3965.73 103.05 3958.94 120.037 3946.48 132.493C3934.02 144.95 3917.04 151.744 3898.92 151.744Z" fill="white"/>
<path d="M3932.89 66.8113C3932.89 60.0168 3930.62 53.2222 3924.96 48.6925C3920.43 44.1629 3913.64 40.7656 3906.84 40.7656H3864.94V124.565H3881.93V90.5921H3894.38L3917.03 124.565H3937.42L3914.77 89.4597C3920.43 88.3273 3924.96 84.93 3928.36 80.4003C3930.62 78.1355 3932.89 72.4734 3932.89 66.8113ZM3907.97 75.8707H3883.06V58.8844H3907.97C3910.24 58.8844 3912.5 60.0168 3913.64 61.1492C3914.77 62.2817 3915.9 64.5465 3915.9 66.8113C3915.9 69.0762 3914.77 71.341 3913.64 72.4734C3912.5 74.7383 3910.24 75.8707 3907.97 75.8707Z" fill="white"/>
<path d="M2194.64 1181.11C1957.97 1181.11 1766.59 988.602 1766.59 753.059C1766.59 517.515 1959.1 325.004 2194.64 325.004C2372.43 325.004 2529.84 432.584 2594.39 597.917L2442.64 656.803C2403.01 553.753 2305.62 488.072 2195.77 488.072C2049.69 488.072 1930.79 606.976 1930.79 753.059C1930.79 899.141 2049.69 1018.05 2195.77 1018.05C2304.49 1018.05 2401.87 952.365 2442.64 851.579L2594.39 911.598C2527.57 1075.8 2371.3 1181.11 2194.64 1181.11Z" fill="white"/>
<path d="M3116.43 1181.11C2879.75 1181.11 2688.37 988.598 2688.37 753.055V43.0273H2851.44V753.055C2851.44 899.137 2970.34 1018.04 3116.43 1018.04V1181.11Z" fill="white"/>
<path d="M1478.95 1174.32H1315.88V756.457C1315.88 519.781 1508.39 328.402 1743.94 328.402V491.471C1597.86 491.471 1478.95 610.375 1478.95 756.457V1174.32Z" fill="white"/>
<path d="M1207.17 325.004H1044.1V1175.45H1207.17V325.004Z" fill="white"/>
<path d="M707.763 1174.32H0V1012.38H707.763C758.722 1012.38 799.489 971.616 799.489 921.789C799.489 871.963 758.722 830.063 707.763 830.063H534.503C394.082 830.063 279.708 716.821 279.708 577.534C279.708 438.246 394.082 325.004 534.503 325.004H882.156V486.94H534.503C483.544 486.94 442.776 527.707 442.776 578.666C442.776 628.493 483.544 669.26 534.503 669.26H707.763C848.183 669.26 962.557 782.502 962.557 921.789C963.69 1061.08 848.183 1174.32 707.763 1174.32Z" fill="white"/>
<path d="M4000 747.697C4000 657.047 3979.86 578.987 3942.08 516.036C3904.31 453.085 3848.92 405.242 3783.45 369.99C3717.98 337.255 3642.44 319.629 3559.34 319.629C3501.43 319.629 3443.51 329.701 3390.63 347.327C3337.75 364.954 3289.91 392.652 3249.62 427.905C3209.33 463.157 3176.6 508.482 3153.94 563.879C3143.86 586.542 3136.31 616.758 3128.76 654.529C3121.2 692.299 3118.68 725.034 3118.68 752.733C3118.68 840.864 3138.83 916.405 3176.6 981.875C3214.37 1044.83 3267.25 1092.67 3332.72 1125.4C3365.45 1143.03 3403.22 1155.62 3446.03 1163.17C3488.84 1170.73 3531.64 1175.76 3571.93 1175.76C3602.15 1175.76 3637.4 1173.25 3672.65 1168.21C3707.91 1163.17 3740.64 1155.62 3768.34 1148.07C3851.44 1120.37 3919.42 1067.49 3972.3 994.465L3811.15 931.514C3791 959.212 3760.79 981.875 3728.05 1002.02C3690.28 1024.68 3647.47 1037.27 3604.67 1039.79H3544.23C3483.8 1034.75 3433.44 1017.13 3393.15 984.393C3355.38 951.658 3327.68 908.851 3310.06 855.972L3305.02 840.864L3997.48 772.877L4000 747.697ZM3806.11 636.902L3811.15 652.011L3299.98 702.372L3302.5 684.746C3312.57 619.276 3337.75 566.397 3378.04 523.59C3418.33 480.784 3473.73 458.121 3541.72 453.085H3571.93C3632.36 455.603 3680.21 475.748 3720.5 508.482C3760.79 541.217 3788.48 584.024 3806.11 636.902Z" fill="white"/>
</svg>
