<svg width="256" height="256" viewBox="0 0 256 256" fill="none" xmlns="http://www.w3.org/2000/svg">
<rect width="256" height="256" fill="#EC7B0F"/>
<path d="M27.9391 128.035C27.9391 120.057 29.1262 112.84 31.5003 106.382C33.9694 99.8297 37.4831 94.2267 42.0415 89.5734C46.6948 84.9201 52.2978 81.3589 58.8505 78.8898C65.4981 76.3257 73.0004 75.0437 81.3574 75.0437C88.1949 75.0437 94.5101 75.9458 100.303 77.7502C106.191 79.5545 111.319 82.3085 115.688 86.0122C120.056 89.6209 123.665 94.1793 126.514 99.6873C129.363 105.1 131.262 111.463 132.212 118.775H98.5937C97.9289 113.077 96.0296 108.662 92.8957 105.528C89.8568 102.299 85.8208 100.684 80.7876 100.684C77.6537 100.684 74.8522 101.302 72.3831 102.536C70.0089 103.771 67.9672 105.575 66.2578 107.949C64.5484 110.323 63.2189 113.22 62.2692 116.639C61.4145 119.962 60.9872 123.761 60.9872 128.035C60.9872 132.403 61.4145 136.297 62.2692 139.715C63.2189 143.039 64.5484 145.888 66.2578 148.262C67.9672 150.636 70.0564 152.441 72.5255 153.675C75.0896 154.91 77.9861 155.527 81.2149 155.527C86.3431 155.527 90.3791 153.96 93.3231 150.826C96.267 147.598 98.0239 142.802 98.5937 136.439H132.354C131.499 143.751 129.6 150.209 126.656 155.812C123.807 161.32 120.151 165.973 115.688 169.772C111.224 173.476 106.001 176.325 100.018 178.319C94.1303 180.218 87.6726 181.168 80.6451 181.168C72.573 181.168 65.2607 179.933 58.708 177.464C52.2503 174.9 46.7423 171.292 42.184 166.638C37.6256 161.985 34.1119 156.429 31.6427 149.972C29.1736 143.419 27.9391 136.107 27.9391 128.035ZM136.418 179.031V77.1804H183.711C197.481 77.1804 207.738 79.4121 214.48 83.8755C221.223 88.2439 224.594 95.2714 224.594 104.958C224.594 108.092 224.072 110.893 223.027 113.362C222.077 115.737 220.653 117.826 218.754 119.63C216.854 121.434 214.48 122.906 211.631 124.046C208.782 125.091 205.458 125.85 201.66 126.325C210.587 127.18 217.234 129.696 221.603 133.875C225.971 138.053 228.155 143.704 228.155 150.826C228.155 160.513 224.831 167.635 218.184 172.194C211.631 176.752 201.47 179.031 187.7 179.031H136.418ZM168.754 154.815H182.429C186.703 154.815 189.884 154.15 191.973 152.821C194.063 151.396 195.107 149.117 195.107 145.983C195.107 142.944 194.11 140.713 192.116 139.288C190.121 137.864 186.893 137.151 182.429 137.151H168.754V154.815ZM168.754 117.208H178.726C182.999 117.208 186.038 116.591 187.842 115.357C189.742 114.027 190.691 112.033 190.691 109.374C190.691 106.525 189.742 104.483 187.842 103.249C186.038 102.014 182.999 101.397 178.726 101.397H168.754V117.208Z" fill="white"/>
</svg>
