<?xml version="1.0" encoding="utf-8"?>
<svg xmlns="http://www.w3.org/2000/svg" width="165" height="44" viewBox="0 0 165 44">
<path d="M15.9328 10.7471H11.1282V27.0575H15.9328V10.7471Z"/>
<path d="M13.5305 33.2528C14.9213 33.2528 15.9328 32.1149 15.9328 30.8505C15.9328 29.5862 14.7949 28.4482 13.5305 28.4482C12.2662 28.4482 11.1282 29.5862 11.1282 30.8505C11.1282 32.1149 12.2662 33.2528 13.5305 33.2528Z"/>
<path d="M23.8995 32.7472C25.0374 32.4943 26.0489 31.9886 26.9339 31.3564C28.4512 30.3449 29.7156 28.9541 30.6006 27.3104C31.4857 25.6667 31.865 23.8966 31.865 22.0001C31.865 20.1035 31.4857 18.8391 30.8535 17.3219C30.2213 15.9311 29.2098 14.5403 27.9454 13.4024C26.9339 12.5173 25.9225 11.8851 24.911 11.5058L23.3937 16.0575C23.773 16.184 24.0259 16.4368 24.4052 16.5633C25.2903 17.1955 25.9225 17.9541 26.4282 18.8391C26.9339 19.7242 27.1868 20.7357 27.1868 21.8736C27.1868 23.6437 26.5546 25.161 25.2903 26.4253C24.6581 27.0575 23.8995 27.5633 23.1408 27.8161C22.3822 28.069 21.3707 28.1955 20.1064 28.1955H18.3362V33.0001H20.2328C21.75 33.0001 23.0144 32.8736 24.1523 32.6207L23.8995 32.7472Z"/>
<path d="M20.3626 15.5517C21.6269 15.5517 22.7649 14.5402 22.7649 13.1494C22.7649 11.7586 21.7534 10.7471 20.3626 10.7471C18.9718 10.7471 17.9603 11.7586 17.9603 13.1494C17.9603 14.5402 18.9718 15.5517 20.3626 15.5517Z"/>
<path d="M149.961 28.4482H142.627V33.1264H149.961V28.4482Z"/>
<path d="M141.363 10.7471H136.558V27.1839H141.363V10.7471Z"/>
<path d="M138.96 33.2528C140.351 33.2528 141.363 32.1149 141.363 30.8505C141.363 29.5862 140.225 28.4482 138.96 28.4482C137.696 28.4482 136.558 29.5862 136.558 30.8505C136.558 32.1149 137.696 33.2528 138.96 33.2528Z"/>
<path d="M110.248 10.7471H95.0755V15.4253H110.248V10.7471Z"/>
<path d="M105.069 22.7586H100.264V33.1264H105.069V22.7586Z"/>
<path d="M105.069 19.0919C105.069 17.7011 103.931 16.6896 102.666 16.6896C101.402 16.6896 100.264 17.8275 100.264 19.0919C100.264 20.3562 101.402 21.4942 102.666 21.4942C103.931 21.4942 105.069 20.3562 105.069 19.0919Z"/>
<path d="M124.161 0H0V44H164.747V0H124.161ZM2.27586 41.7241V2.27586H40.5862V41.7241H2.27586ZM81.1724 41.7241H42.8621V2.27586H81.1724V41.7241ZM121.759 41.7241H83.4483V2.27586H121.759V41.7241ZM162.345 41.7241H124.034V2.27586H162.345V41.7241Z"/>
<path d="M61.8245 24.4025H73.4567C73.4567 23.8968 73.5831 23.5174 73.7096 23.1381C73.7096 22.7588 73.7096 22.3795 73.7096 22.0002C73.7096 21.6209 73.7096 21.2416 73.7096 20.8623C73.7096 20.483 73.7096 20.1036 73.4567 19.5979H61.8245V24.2761V24.4025Z"/>
<path d="M52.8508 24.4025C54.2416 24.4025 55.2531 23.2646 55.2531 22.0002C55.2531 20.7358 54.1152 19.5979 52.8508 19.5979C51.5865 19.5979 50.4485 20.7358 50.4485 22.0002C50.4485 23.2646 51.5865 24.4025 52.8508 24.4025Z"/>
<path d="M66.7638 27.0575C65.373 28.3219 63.8558 29.0805 61.9592 29.0805C60.0627 29.0805 60.0627 28.954 59.3041 28.5747C58.419 28.1954 57.6604 27.6897 57.0282 27.0575C56.6489 26.6782 56.2696 26.2989 56.0167 25.7931H50.7064C50.7064 26.046 50.9592 26.4253 51.0857 26.6782C51.7179 28.069 52.6029 29.3333 53.6144 30.4713C54.6259 31.6092 55.8903 32.3678 57.4075 33C58.7983 33.6322 60.3156 33.8851 61.9592 33.8851C63.6029 33.8851 64.2351 33.7586 65.2466 33.3793C66.2581 33.1265 67.2696 32.6207 68.1546 31.9885C69.0397 31.3563 69.9248 30.7242 70.6834 29.8391C71.442 28.954 72.0742 28.069 72.5799 27.0575H66.7638Z"/>
<path d="M61.9568 10.2415C60.3131 10.2415 58.7958 10.4943 57.2786 11.1265C55.8878 11.7587 54.6234 12.6438 53.4855 13.6552C52.3476 14.6667 51.5889 15.9311 50.9568 17.4484C50.8303 17.8277 50.7039 18.0805 50.5775 18.4598H55.8878C56.1407 17.9541 56.52 17.5748 56.8993 17.1955C57.5315 16.5633 58.2901 16.0575 59.1752 15.6782C60.0602 15.2989 60.9453 15.1725 61.9568 15.1725C62.9683 15.1725 63.7269 15.2989 64.6119 15.6782C65.3706 16.0575 66.1292 16.5633 67.0142 17.3219L70.5545 13.9081C68.1522 11.5058 65.3706 10.2415 62.0832 10.2415H61.9568Z"/>
</svg>