<svg xmlns="http://www.w3.org/2000/svg" viewBox="0 0 1193.36 461.76"><defs><style>.d{fill:#fff}</style></defs><g id="b"><g id="c"><path class="d" d="M0 0v461.76h269.36V0H0zm168.65 329.69l-67.74-93.63v93.63H48.22V132.07h52.7v86.22l65.23-86.22h62.06l-72.03 93.03 76.97 104.6h-64.49zM615.67 0v461.76h269.36V0H615.67zm222.55 329.69h-43.94l-83.06-115.68v115.68h-48.74V132.07h46.03l80.81 107.36V132.07h48.9v197.62zM442.5 174.29c-28.08 0-49.78 23.09-49.78 56.55s21.69 56.55 49.78 56.55 49.77-23.01 49.77-56.55-21.77-56.55-49.77-56.55z"/><path class="d" d="M307.84 0v461.76H577.2V0H307.84zm134.67 334.04c-56.79 0-102.47-42.02-102.47-103.2s45.68-103.12 102.47-103.12S545 169.65 545 230.84s-45.68 103.2-102.49 103.2zM924.01 0v461.76h269.36V0H924.01zm209.44 175.62H1036v33.41h81.48l-.02 42.31h-81.45v33.51h97.45v44.86H983.95V132.05h149.51v43.57z"/></g></g></svg>