<svg xmlns="http://www.w3.org/2000/svg" width="566.929" height="283.465" viewBox="0 0 566.929 283.465" xml:space="preserve"><path fill="#B91549" d="M199.229 169.64H177.72l-.827 6.204 8.479-.29-1.654 24.694v.413h9.513v-.413l-1.655-24.694 8.479.29-.826-6.204zm13.711-43.211h-22.498l-.827 6.204 8.974-.29-1.654 24.694v.413h9.513v-.413l-1.655-24.694 8.974.29-.827-6.204zm-57.378 31.02v-.413l-9.306-14.891v-.413l8.892-14.891v-.413h-8.686l-6.535 12.821h-4.707v-12.821h-9.099v.413l2.895 14.891v.413l-2.895 14.891v.413h9.099v-12.823h4.707l6.948 12.823h8.687zm-30.875 30.473 9.513.329-.827-5.79h-8.687v-7.03l10.755.413-.828-6.204h-19.026v.414l2.896 14.89v.413l-2.896 14.891v.413h19.854l.827-6.203-11.582.413.001-6.949zm-15.27-36.304-8.687-.415.827 6.206h8.273c6.577 0 11.168-3.226 11.168-8.893 0-9.347-11.789-8.81-11.789-14.022 0-1.654 1.117-2.4 2.937-2.274l6.991.413-.827-6.204h-6.204c-6.369 0-10.754 3.35-10.754 9.306 0 8.851 11.788 8.272 11.788 13.193-.001 1.945-1.655 2.772-3.723 2.69zm103.612 36.304 9.513.329-.827-5.79h-8.687v-7.03l10.755.413-.828-6.204H203.93v.414l2.896 14.89v.413l-2.896 14.891v.413h19.854l.827-6.203-11.582.413v-6.949zm-27.288-30.473v-.413l-2.895-14.891v-.413l2.895-14.891v-.413h-25.644v.413l2.895 14.891v.413l-2.895 14.891v.413h9.099v-12.823h7.445v12.823h9.1zm-12.823-18.2a4.19 4.19 0 0 1-4.209-4.207c0-2.34 1.871-4.208 4.209-4.208s4.209 1.868 4.209 4.208a4.19 4.19 0 0 1-4.209 4.207zm-8.999 50.327-12.822-19.936h-9.099v.414l2.896 14.89v.413l-2.896 14.891v.413h9.099v-19.936l12.822 19.936h9.1v-.413l-2.896-14.891v-.413l2.896-14.89v-.414h-9.1v19.936zm54.418-75.749 2.068-16.752v-.413h-8.686v.413l.827 11.125-6.813.25V83.219h-9.099v.413l2.895 14.891v.413l-2.895 14.891v.413h21.702v-.413h.001zm176.98 49.027c.978 2.837 16.359 2.201 22.107 1.151 3.02.324-7.517-3.086-20.878-11.2-.589-.358-2.913-1.319-3.686.046 0 0 1.497 3.067 2.56 4.413-.274 1.746-.535 4.336-.103 5.59zM109.305 105.14l8.686 9.1h9.099v-.413l-2.895-14.891v-.413l2.895-14.891v-.413h-9.099v21.508l-6.205-6.204 2.068-15.304h-9.099l2.068 15.304-6.205 6.204V83.219H91.52v.413l2.895 14.891v.413l-2.895 14.891v.413h9.099l8.686-9.1zm-4.081 95.521h4.55l.827-6.203-5.377.413c-6.908.537-10.96-3.972-10.96-9.72 0-5.75 4.053-10.259 10.96-9.719l5.377.413-.827-6.204h-4.55c-11.457 0-18.82 6.12-18.82 15.51 0 9.347 7.363 15.51 18.82 15.51zm112.416-43.584v.414h19.854l.827-6.204-11.582.413v-6.949l9.513.33-.827-5.79h-8.687v-7.031l10.755.413-.828-6.204H217.64v.414l2.895 14.89v.414l-2.895 14.89zm306.77-97.475V49.458H42.52v10.144l17.225 80.901v2.46l-17.225 80.9v10.144h481.89v-10.144l-17.225-80.901v-2.459l17.225-80.901zM283.465 223.39H56.381l15.243-80.57v-2.176L56.381 60.075h227.083V223.39h.001zm116.04-29.554 2.917-8.669 2.818 8.827c5.367.099 10.318.071 13.793.071 2.232 0 4.312-.007 6.279-.02l3.016-8.878 2.814 8.818c10.935-.16 17.907-.549 26.216-1.072l2.756-8.497c2.499 5.578 10.209 26.624 10.209 26.624s-36.149 4.191-75.713 1.622c-62.856-4.083-69.545-39.03-69.545-39.03s9.034 7.666 28.882 14.099c1.118.362 1.369-.582.356-1.2-24.638-15.049-31.36-39.591-31.36-39.591 10.572 11.512 25.643 19.606 38.89 23.842 2.278.728 2.654-.024.764-1.347-21.945-15.545-38.64-35.181-34.221-58.725 5.689-30.311 37.435-46.766 37.435-46.766l3.33 22.338c6.293-6.986 16.243-16.974 24.959-24.299l-.011 22.975c5.806-6.648 13.748-14.396 21.593-20.009l-.867 22.835c5.32-5.963 12.141-11.129 18.521-15.807l-.915 20.913.06.022c4.554-4.923 10.581-8.887 16.029-12.175l-1.167 19.303c3.704-3.153 8.824-6.041 13.624-8.032l-2.147 16.554 11.393 10.311s-29.606-18.568-55.787-22.996c-34.908-5.903-66.24 4.768-67.619 23.654-1.482 20.294 40.435 49.87 36.027-1.803-.053-.613.345-.952.984-.526l67.679 45.201 22.967-6.008-6.636 30.238s-3.144-7.002-11.541-7.002c-4.074 0-8.276-.02-12.462-.05l-2.687 9.897-2.549-9.938c-7.361-.063-14.482-.142-20.566-.178l-2.791 10.116-2.638-10.135s-3.524.091-11.026.207c-13.46.207-15.801 13.244-15.801 13.244 4.169.549 8.973.863 13.738 1.042zm-148.51-95.107c0-9.349-6.866-15.51-17.578-15.51h-9.513v.413l2.895 14.891v.413l-2.895 14.891v.413h9.513c10.712 0 17.578-6.121 17.578-15.511zm-17.992-9.719h.414c6.122 0 9.72 3.97 9.72 9.719s-3.598 9.72-9.72 9.72h-.414V89.01zm-86.398 25.644c9.679 0 15.924-6.287 15.924-15.924 0-9.596-6.245-15.925-15.924-15.925-9.678 0-15.924 6.287-15.924 15.925 0 9.596 6.246 15.924 15.924 15.924zm0-26.266c4.467 0 8.066 3.352 8.066 10.341s-3.599 10.34-8.066 10.34-8.065-3.35-8.065-10.34 3.598-10.341 8.065-10.341zm106.322 88.904c0-4.219-3.475-7.652-7.735-7.652H229.35v.414l2.895 14.89v.413l-2.895 14.891v.413h9.099v-12.823h1.324l6.949 12.823h8.895v-.413l-10.425-14.891v-.413c4.26 0 7.735-3.433 7.735-7.652zm-11.789 4.89a3.886 3.886 0 0 1-3.904-3.902c0-2.171 1.735-3.904 3.904-3.904s3.904 1.733 3.904 3.904a3.887 3.887 0 0 1-3.904 3.902zm-65.753-80.765h1.323l6.949 12.823h9.513v-.413l-11.043-14.891v-.413c4.26 0 7.735-3.433 7.735-7.652s-3.474-7.652-7.735-7.652h-15.841v.413l2.895 14.891v.413l-2.895 14.891v.413h9.099v-12.823zm-1.215-9.558c0-2.171 1.735-3.904 3.904-3.904s3.904 1.733 3.904 3.904c0 2.169-1.735 3.902-3.904 3.902s-3.904-1.734-3.904-3.902z"/></svg>
